# xmcd CD database file
#
# Track frame offsets:
#	182
#	16520
#	37207
#	48312
#	70190
#	91052
#	130032
#	155615
#	171875
#	194185
#	215112
#	235027
#	253125
#	280900
#	294065
#	305730
#	311545
#
# Disc length: 4368 seconds
#
# Revision: 0
# Processed by: cddbd v1.4PL0 Copyright (c) Steve Scherf et al.
# Submitted via: CDex 1.51
#
DISCID=f4110e11
DTITLE=Stephane Grappelli - Stéphane Grappelli and Friends in Paris
DYEAR=1996
DGENRE=Jazz
TTITLE0=Swing 39
TTITLE1=Dark eyes
TTITLE2=Clopin-clopant
TTITLE3=Them there eyes
TTITLE4=Thou well
TTITLE5=Blues for Musicdisc
TTITLE6=The folks who live on the hill
TTITLE7=It's wonderfull
TTITLE8=St-Louis Blues
TTITLE9=Ain't she sweet
TTITLE10=It don't mean a thing ...
TTITLE11=Stardust
TTITLE12=Summertime
TTITLE13=Rools 1
TTITLE14=Poursuite
TTITLE15=Rolls 2
TTITLE16=Alleluia
EXTD=YEAR: 1996
EXTT0=
EXTT1=
EXTT2=
EXTT3=
EXTT4=
EXTT5=
EXTT6=
EXTT7=
EXTT8=
EXTT9=
EXTT10=
EXTT11=
EXTT12=
EXTT13=
EXTT14=
EXTT15=
EXTT16=
PLAYORDER=
